<?xml version="1.0" encoding="us-ascii" standalone="no"?><svg xmlns="http://www.w3.org/2000/svg" xmlns:xlink="http://www.w3.org/1999/xlink" contentStyleType="text/css" height="681px" preserveAspectRatio="none" style="width:962px;height:681px;background:#FFFFFF;" version="1.1" viewBox="0 0 962 681" width="962px" zoomAndPan="magnify"><defs/><g><!--cluster Load_Cases--><g id="cluster_Load_Cases"><path d="M8.5,6.602 L88.5,6.602 A3.75,3.75 0 0 1 91,9.102 L98,31.6699 L952.5,31.6699 A2.5,2.5 0 0 1 955,34.1699 L955,672.102 A2.5,2.5 0 0 1 952.5,674.602 L8.5,674.602 A2.5,2.5 0 0 1 6,672.102 L6,9.102 A2.5,2.5 0 0 1 8.5,6.602 " fill="none" style="stroke:#000000;stroke-width:1.5;"/><line style="stroke:#000000;stroke-width:1.5;" x1="6" x2="98" y1="31.6699" y2="31.6699"/><text fill="#000000" font-family="sans-serif" font-size="14" font-weight="bold" lengthAdjust="spacing" textLength="79" x="10" y="23.5679">Load_Cases</text></g><!--class Lemaire_Load_Cases--><g id="elem_Lemaire_Load_Cases"><rect codeLine="176" fill="#F1F1F1" height="219.6113" id="Lemaire_Load_Cases" rx="2.5" ry="2.5" style="stroke:#181818;stroke-width:0.5;" width="169" x="21.5" y="429.102"/><ellipse cx="36.5" cy="445.102" fill="#ADD1B2" rx="11" ry="11" style="stroke:#181818;stroke-width:1.0;"/><path d="M39.4688,450.7426 Q38.8906,451.0395 38.25,451.1801 Q37.6094,451.3364 36.9063,451.3364 Q34.4063,451.3364 33.0781,449.6957 Q31.7656,448.0395 31.7656,444.9145 Q31.7656,441.7895 33.0781,440.1332 Q34.4063,438.477 36.9063,438.477 Q37.6094,438.477 38.25,438.6332 Q38.9063,438.7895 39.4688,439.0864 L39.4688,441.8051 Q38.8438,441.227 38.25,440.9614 Q37.6563,440.6801 37.0313,440.6801 Q35.6875,440.6801 35,441.7582 Q34.3125,442.8207 34.3125,444.9145 Q34.3125,447.0082 35,448.0864 Q35.6875,449.1489 37.0313,449.1489 Q37.6563,449.1489 38.25,448.8832 Q38.8438,448.602 39.4688,448.0239 L39.4688,450.7426 Z " fill="#000000"/><text fill="#000000" font-family="sans-serif" font-size="14" lengthAdjust="spacing" textLength="137" x="50.5" y="450.534">Lemaire_Load_Cases</text><line style="stroke:#181818;stroke-width:0.5;" x1="22.5" x2="189.5" y1="461.102" y2="461.102"/><text fill="#000000" font-family="sans-serif" font-size="14" lengthAdjust="spacing" textLength="144" x="27.5" y="480.0679">Lemaire_Load_Case_1</text><text fill="#000000" font-family="sans-serif" font-size="14" lengthAdjust="spacing" textLength="144" x="27.5" y="499.1358">Lemaire_Load_Case_2</text><text fill="#000000" font-family="sans-serif" font-size="14" lengthAdjust="spacing" textLength="144" x="27.5" y="518.2038">Lemaire_Load_Case_3</text><text fill="#000000" font-family="sans-serif" font-size="14" lengthAdjust="spacing" textLength="144" x="27.5" y="537.2717">Lemaire_Load_Case_4</text><text fill="#000000" font-family="sans-serif" font-size="14" lengthAdjust="spacing" textLength="144" x="27.5" y="556.3396">Lemaire_Load_Case_5</text><text fill="#000000" font-family="sans-serif" font-size="14" lengthAdjust="spacing" textLength="144" x="27.5" y="575.4075">Lemaire_Load_Case_6</text><text fill="#000000" font-family="sans-serif" font-size="14" lengthAdjust="spacing" textLength="144" x="27.5" y="594.4754">Lemaire_Load_Case_7</text><text fill="#000000" font-family="sans-serif" font-size="14" lengthAdjust="spacing" textLength="144" x="27.5" y="613.5433">Lemaire_Load_Case_8</text><text fill="#000000" font-family="sans-serif" font-size="14" lengthAdjust="spacing" textLength="144" x="27.5" y="632.6113">Lemaire_Load_Case_9</text><line style="stroke:#181818;stroke-width:0.5;" x1="22.5" x2="189.5" y1="640.7132" y2="640.7132"/></g><!--class Martinez_Reina_Load_Cases--><g id="elem_Martinez_Reina_Load_Cases"><rect codeLine="187" fill="#F1F1F1" height="67.0679" id="Martinez_Reina_Load_Cases" rx="2.5" ry="2.5" style="stroke:#181818;stroke-width:0.5;" width="219" x="518.5" y="159.102"/><ellipse cx="533.5" cy="175.102" fill="#ADD1B2" rx="11" ry="11" style="stroke:#181818;stroke-width:1.0;"/><path d="M536.4688,180.7426 Q535.8906,181.0395 535.25,181.1801 Q534.6094,181.3364 533.9063,181.3364 Q531.4063,181.3364 530.0781,179.6957 Q528.7656,178.0395 528.7656,174.9145 Q528.7656,171.7895 530.0781,170.1332 Q531.4063,168.477 533.9063,168.477 Q534.6094,168.477 535.25,168.6332 Q535.9063,168.7895 536.4688,169.0864 L536.4688,171.8051 Q535.8438,171.227 535.25,170.9614 Q534.6563,170.6801 534.0313,170.6801 Q532.6875,170.6801 532,171.7582 Q531.3125,172.8207 531.3125,174.9145 Q531.3125,177.0082 532,178.0864 Q532.6875,179.1489 534.0313,179.1489 Q534.6563,179.1489 535.25,178.8832 Q535.8438,178.602 536.4688,178.0239 L536.4688,180.7426 Z " fill="#000000"/><text fill="#000000" font-family="sans-serif" font-size="14" lengthAdjust="spacing" textLength="187" x="547.5" y="180.534">Martinez_Reina_Load_Cases</text><line style="stroke:#181818;stroke-width:0.5;" x1="519.5" x2="736.5" y1="191.102" y2="191.102"/><text fill="#000000" font-family="sans-serif" font-size="14" lengthAdjust="spacing" textLength="187" x="524.5" y="210.0679">Martinez_Reina_Load_Cases</text><line style="stroke:#181818;stroke-width:0.5;" x1="519.5" x2="736.5" y1="218.1699" y2="218.1699"/></g><!--class Martonova_Load_Cases--><g id="elem_Martonova_Load_Cases"><rect codeLine="191" fill="#F1F1F1" height="238.6792" id="Martonova_Load_Cases" rx="2.5" ry="2.5" style="stroke:#181818;stroke-width:0.5;" width="342" x="226" y="419.602"/><ellipse cx="315.25" cy="435.602" fill="#ADD1B2" rx="11" ry="11" style="stroke:#181818;stroke-width:1.0;"/><path d="M318.2188,441.2426 Q317.6406,441.5395 317,441.6801 Q316.3594,441.8364 315.6563,441.8364 Q313.1563,441.8364 311.8281,440.1957 Q310.5156,438.5395 310.5156,435.4145 Q310.5156,432.2895 311.8281,430.6332 Q313.1563,428.977 315.6563,428.977 Q316.3594,428.977 317,429.1332 Q317.6563,429.2895 318.2188,429.5864 L318.2188,432.3051 Q317.5938,431.727 317,431.4614 Q316.4063,431.1801 315.7813,431.1801 Q314.4375,431.1801 313.75,432.2582 Q313.0625,433.3207 313.0625,435.4145 Q313.0625,437.5082 313.75,438.5864 Q314.4375,439.6489 315.7813,439.6489 Q316.4063,439.6489 317,439.3832 Q317.5938,439.102 318.2188,438.5239 L318.2188,441.2426 Z " fill="#000000"/><text fill="#000000" font-family="sans-serif" font-size="14" lengthAdjust="spacing" textLength="155" x="335.75" y="441.034">Martonova_Load_Cases</text><line style="stroke:#181818;stroke-width:0.5;" x1="227" x2="567" y1="451.602" y2="451.602"/><text fill="#000000" font-family="sans-serif" font-size="14" lengthAdjust="spacing" textLength="129" x="232" y="470.5679">injected_PTH_pulse</text><text fill="#000000" font-family="sans-serif" font-size="14" lengthAdjust="spacing" textLength="111" x="232" y="489.6358">Basal_PTH_pulse</text><text fill="#000000" font-family="sans-serif" font-size="14" lengthAdjust="spacing" textLength="129" x="232" y="508.7038">Martonova_Healthy</text><text fill="#000000" font-family="sans-serif" font-size="14" lengthAdjust="spacing" textLength="221" x="232" y="527.7717">Martonova_Hyperparathyroidism</text><text fill="#000000" font-family="sans-serif" font-size="14" lengthAdjust="spacing" textLength="166" x="232" y="546.8396">Martonova_Osteoporosis</text><text fill="#000000" font-family="sans-serif" font-size="14" lengthAdjust="spacing" textLength="283" x="232" y="565.9075">Martonova_Postmenopausal_Osteoporosis</text><text fill="#000000" font-family="sans-serif" font-size="14" lengthAdjust="spacing" textLength="177" x="232" y="584.9754">Martonova_Hypercalcemia</text><text fill="#000000" font-family="sans-serif" font-size="14" lengthAdjust="spacing" textLength="171" x="232" y="604.0433">Martonova_Hypocalcemia</text><text fill="#000000" font-family="sans-serif" font-size="14" lengthAdjust="spacing" textLength="330" x="232" y="623.1113">Martonova_Glucocorticoid_Induced_Osteoporosis</text><text fill="#000000" font-family="sans-serif" font-size="14" lengthAdjust="spacing" textLength="298" x="232" y="642.1792">Martonova_Hyperparathyroidism_With_Drug</text><line style="stroke:#181818;stroke-width:0.5;" x1="227" x2="567" y1="650.2812" y2="650.2812"/></g><!--class Modiz_Load_Cases--><g id="elem_Modiz_Load_Cases"><rect codeLine="204" fill="#F1F1F1" height="295.8829" id="Modiz_Load_Cases" rx="2.5" ry="2.5" style="stroke:#181818;stroke-width:0.5;" width="461" x="22.5" y="44.602"/><ellipse cx="186.75" cy="60.602" fill="#ADD1B2" rx="11" ry="11" style="stroke:#181818;stroke-width:1.0;"/><path d="M189.7188,66.2426 Q189.1406,66.5395 188.5,66.6801 Q187.8594,66.8364 187.1563,66.8364 Q184.6563,66.8364 183.3281,65.1957 Q182.0156,63.5395 182.0156,60.4145 Q182.0156,57.2895 183.3281,55.6332 Q184.6563,53.977 187.1563,53.977 Q187.8594,53.977 188.5,54.1332 Q189.1563,54.2895 189.7188,54.5864 L189.7188,57.3051 Q189.0938,56.727 188.5,56.4614 Q187.9063,56.1801 187.2813,56.1801 Q185.9375,56.1801 185.25,57.2582 Q184.5625,58.3207 184.5625,60.4145 Q184.5625,62.5082 185.25,63.5864 Q185.9375,64.6489 187.2813,64.6489 Q187.9063,64.6489 188.5,64.3832 Q189.0938,64.102 189.7188,63.5239 L189.7188,66.2426 Z " fill="#000000"/><text fill="#000000" font-family="sans-serif" font-size="14" lengthAdjust="spacing" textLength="124" x="207.25" y="66.034">Modiz_Load_Cases</text><line style="stroke:#181818;stroke-width:0.5;" x1="23.5" x2="482.5" y1="76.602" y2="76.602"/><text fill="#000000" font-family="sans-serif" font-size="14" lengthAdjust="spacing" textLength="130" x="28.5" y="95.5679">Lemaire_Load_Case</text><text fill="#000000" font-family="sans-serif" font-size="14" lengthAdjust="spacing" textLength="266" x="28.5" y="114.6358">Modiz_Healthy_to_Hyperparathyroidism</text><text fill="#000000" font-family="sans-serif" font-size="14" lengthAdjust="spacing" textLength="211" x="28.5" y="133.7038">Modiz_Healthy_to_Osteoporosis</text><text fill="#000000" font-family="sans-serif" font-size="14" lengthAdjust="spacing" textLength="328" x="28.5" y="152.7717">Modiz_Healthy_to_Postmenopausal_Osteoporosis</text><text fill="#000000" font-family="sans-serif" font-size="14" lengthAdjust="spacing" textLength="222" x="28.5" y="171.8396">Modiz_Healthy_to_Hypercalcemia</text><text fill="#000000" font-family="sans-serif" font-size="14" lengthAdjust="spacing" textLength="216" x="28.5" y="190.9075">Modiz_Healthy_to_Hypocalcemia</text><text fill="#000000" font-family="sans-serif" font-size="14" lengthAdjust="spacing" textLength="375" x="28.5" y="209.9754">Modiz_Healthy_to_Glucocorticoid_Induced_Osteoporosis</text><text fill="#000000" font-family="sans-serif" font-size="14" lengthAdjust="spacing" textLength="340" x="28.5" y="229.0433">Modiz_Reference_Healthy_to_Hyperparathyroidism</text><text fill="#000000" font-family="sans-serif" font-size="14" lengthAdjust="spacing" textLength="285" x="28.5" y="248.1113">Modiz_Reference_Healthy_to_Osteoporosis</text><text fill="#000000" font-family="sans-serif" font-size="14" lengthAdjust="spacing" textLength="402" x="28.5" y="267.1792">Modiz_Reference_Healthy_to_Postmenopausal_Osteoporosis</text><text fill="#000000" font-family="sans-serif" font-size="14" lengthAdjust="spacing" textLength="296" x="28.5" y="286.2471">Modiz_Reference_Healthy_to_Hypercalcemia</text><text fill="#000000" font-family="sans-serif" font-size="14" lengthAdjust="spacing" textLength="290" x="28.5" y="305.315">Modiz_Reference_Healthy_to_Hypocalcemia</text><text fill="#000000" font-family="sans-serif" font-size="14" lengthAdjust="spacing" textLength="449" x="28.5" y="324.3829">Modiz_Reference_Healthy_to_Glucocorticoid_Induced_Osteoporosis</text><line style="stroke:#181818;stroke-width:0.5;" x1="23.5" x2="482.5" y1="332.4849" y2="332.4849"/></g><!--class Pivonka_Load_Cases--><g id="elem_Pivonka_Load_Cases"><rect codeLine="222" fill="#F1F1F1" height="67.0679" id="Pivonka_Load_Cases" rx="2.5" ry="2.5" style="stroke:#181818;stroke-width:0.5;" width="166" x="773" y="159.102"/><ellipse cx="788" cy="175.102" fill="#ADD1B2" rx="11" ry="11" style="stroke:#181818;stroke-width:1.0;"/><path d="M790.9688,180.7426 Q790.3906,181.0395 789.75,181.1801 Q789.1094,181.3364 788.4063,181.3364 Q785.9063,181.3364 784.5781,179.6957 Q783.2656,178.0395 783.2656,174.9145 Q783.2656,171.7895 784.5781,170.1332 Q785.9063,168.477 788.4063,168.477 Q789.1094,168.477 789.75,168.6332 Q790.4063,168.7895 790.9688,169.0864 L790.9688,171.8051 Q790.3438,171.227 789.75,170.9614 Q789.1563,170.6801 788.5313,170.6801 Q787.1875,170.6801 786.5,171.7582 Q785.8125,172.8207 785.8125,174.9145 Q785.8125,177.0082 786.5,178.0864 Q787.1875,179.1489 788.5313,179.1489 Q789.1563,179.1489 789.75,178.8832 Q790.3438,178.602 790.9688,178.0239 L790.9688,180.7426 Z " fill="#000000"/><text fill="#000000" font-family="sans-serif" font-size="14" lengthAdjust="spacing" textLength="134" x="802" y="180.534">Pivonka_Load_Cases</text><line style="stroke:#181818;stroke-width:0.5;" x1="774" x2="938" y1="191.102" y2="191.102"/><text fill="#000000" font-family="sans-serif" font-size="14" lengthAdjust="spacing" textLength="127" x="779" y="210.0679">Pivonka_Load_Case</text><line style="stroke:#181818;stroke-width:0.5;" x1="774" x2="938" y1="218.1699" y2="218.1699"/></g><!--class Scheiner_Load_Cases--><g id="elem_Scheiner_Load_Cases"><rect codeLine="225" fill="#F1F1F1" height="67.0679" id="Scheiner_Load_Cases" rx="2.5" ry="2.5" style="stroke:#181818;stroke-width:0.5;" width="174" x="603" y="505.602"/><ellipse cx="618" cy="521.602" fill="#ADD1B2" rx="11" ry="11" style="stroke:#181818;stroke-width:1.0;"/><path d="M620.9688,527.2426 Q620.3906,527.5395 619.75,527.6801 Q619.1094,527.8364 618.4063,527.8364 Q615.9063,527.8364 614.5781,526.1957 Q613.2656,524.5395 613.2656,521.4145 Q613.2656,518.2895 614.5781,516.6332 Q615.9063,514.977 618.4063,514.977 Q619.1094,514.977 619.75,515.1332 Q620.4063,515.2895 620.9688,515.5864 L620.9688,518.3051 Q620.3438,517.727 619.75,517.4614 Q619.1563,517.1801 618.5313,517.1801 Q617.1875,517.1801 616.5,518.2582 Q615.8125,519.3207 615.8125,521.4145 Q615.8125,523.5082 616.5,524.5864 Q617.1875,525.6489 618.5313,525.6489 Q619.1563,525.6489 619.75,525.3832 Q620.3438,525.102 620.9688,524.5239 L620.9688,527.2426 Z " fill="#000000"/><text fill="#000000" font-family="sans-serif" font-size="14" lengthAdjust="spacing" textLength="142" x="632" y="527.034">Scheiner_Load_Cases</text><line style="stroke:#181818;stroke-width:0.5;" x1="604" x2="776" y1="537.602" y2="537.602"/><text fill="#000000" font-family="sans-serif" font-size="14" lengthAdjust="spacing" textLength="135" x="609" y="556.5679">Scheiner_Load_Case</text><line style="stroke:#181818;stroke-width:0.5;" x1="604" x2="776" y1="564.6699" y2="564.6699"/></g><!--link Modiz_Load_Cases to Martonova_Load_Cases--><g id="link_Modiz_Load_Cases_Martonova_Load_Cases"><path codeLine="220" d="M314.49,340.702 C325.49,367.032 334.5255,388.6364 345.1455,414.0364 " fill="none" id="Modiz_Load_Cases-to-Martonova_Load_Cases" style="stroke:#181818;stroke-width:1.0;"/><polygon fill="#181818" points="347.46,419.572,347.6787,409.7256,345.5313,414.959,340.2978,412.8116,347.46,419.572" style="stroke:#181818;stroke-width:1.0;"/><text fill="#000000" font-family="sans-serif" font-size="13" lengthAdjust="spacing" textLength="27" x="334" y="385.499">uses</text></g><!--link Modiz_Load_Cases to Lemaire_Load_Cases--><g id="link_Modiz_Load_Cases_Lemaire_Load_Cases"><path codeLine="221" d="M190.23,340.702 C177.59,370.322 166.8757,395.4538 154.9057,423.4938 " fill="none" id="Modiz_Load_Cases-to-Lemaire_Load_Cases" style="stroke:#181818;stroke-width:1.0;"/><polygon fill="#181818" points="152.55,429.012,159.7623,422.3051,154.5131,424.4135,152.4047,419.1642,152.55,429.012" style="stroke:#181818;stroke-width:1.0;"/><text fill="#000000" font-family="sans-serif" font-size="13" lengthAdjust="spacing" textLength="27" x="176" y="385.499">uses</text></g><!--SRC=[xHjhRzouyRj_XRxLmJa1-cuNHOlQwUMAozL6xef-9BWITvUD9AeYjV5UUl-zGrAYI8hKIYkvJjeOY9tLF3b33kUXhN3w7kz9yfT7N5GvuH-l4lX9SynvyfOKcDO4jJ0Bado7Qq5ByYDwHsY90nWIWPNiY8FKBAC_XW0FzCZAzq6QxzC3Y2ArWLtzTDKfdRny-SVaxuBcFDaa3IVSXRnbE4Dt69u7mQ0DwIdRJnBmW6jS445g0op9XmgiTQLrKX8_9ahBhv8gPm9jMKdGaULDGT2kngcWhBmMj22Rv4_9JH82Sm3T98AA792ug6cvVx59ZencvnZpQmuFrFzY52d9SvIoCYMbgB57T9Eyffo0NPHnRf9tP4Tg0hZjvnJdTAkfa3XL92040_j2MWonQXRt0A-77xv1Sc57BN77QiK-qrmuuW8Bmg_bafeSrwWcl08vz4XAmZcojGMwcuIMWkpX0SaqMofEGwGft0u4v-9mEi_H8B8yivRIhLLkMRE5glRWwVscZntUWl-1hjtpjz9u2gx1obO8qP8AXAuvoNUs5RKbUwzNh8A5ARsKXnJ1JVAuINBA1UouJRBB6HOlz0EB1omfbQG4J4vmTjAMxmIMJL6TNfKPhcjyigZ0yKU2pieNlCAbnmMuyfJ2PsFWLuWUgrVottr6tX7Uv645VtZpzTRUDFUtJIld_Wwt2tIMglx6MTMaWet0DQjg4IjRgpjyAQjtV_xRjszTNaQjsyhmkh-ToPSyGbmhSGwxwPya5Uw2B-U0btAucyKX51LHUi3bdhHikd0qPOS1jhNVlJqgJpyL5BGD2OsU9LnL-GaLH2f5GN54TZjOAp_ZmudxfEEU0MkrzfQxyUKy6kpIN2cgdm8PWH-K4YSgtIIvl75J25-RX6sbRuU1wiiPNdo6lGlp_dREqP74Jc8mX_Z-uKsGs5xE_r4O2d00yoxLuU7DGWvgt_qFXTDXFFBAa1N2qh8iHcgRi5sYFlD8IbLZ2a4NIfdz2MK4KavnCiSdV0CSCKzLabgnUc2aS5KnxnYc3CeXYcLoNc0eGHxFA3HLOYnNx2MVM5FkkRHjapTy9R7nXM9-wEko9nTs93Ma-AYGTIjMTPY0YDdANLrmKsLAwXxEmXxzgo4DMMc9yemaF-kg4qjaUuQXGlklYkrDt9gMSdr4S_nXJhpJ5_EvYspslGo7cl6cmDkv5wmEFhBm7MCnPfdgWEi2f-mzs4NGb2FrWAKiEvMua0yCPqyTA8LjIKznvGJ3jsuIhPfGPdMpL_aDX6vEXXnwiNrdQCoe3z-YXzTk-3T6QylfOUBV-x9h5NJEYrRRfXSncQ8cAQa4o501d3mEMZr1UaELqpqkixahMoc77113B605scAEXyhiSr1KNu7IfnlPYhcOEvABrdkMPCj5zQqWCBd0fIdk1luqhHVL43ndtI5VjPri0xNBCUpR9OJwL98Kyh4A5fxMH9s3xjm_dPgMfVlTyIae7H3MEUt0E2bx5TfDe9a7WQWN6LdSUEuLxa2swWGKlT1Y5QafooQL0SuQOds4KMCEzUWA232MpFJGxDicexkkWGpviubXNZPtEN-SuKgqpMvmwChwVY1qVp2HuNAkCeUiwLOLOOZjUZjaXAjQ0gzYZAYOkXNJPbmN2h9IfOuTR9vE24Tu1vc5vP75wz7crzkplpRNOXjSnMpcJcQa9cHkLlHLCf8LQG9hqdMJwBcC7DnqSwNXIAUVEAtLOQAGO0gwSmSZbPcaNGD91H95CDFIkPrqqQufzR4sf2QGvMqJqb8CzEm2S66Ikn1yF9_DoT7JzxgTFctw8UByDIDMvZeYjWEYTg3IcS8-691Ed-1AqJrPUVAwC2BQooQ5X1vM1i6SomJ_MexEDb1IiJoUmWOwkVqqBjBJlI07NvGR3bNiXi5VcispMGLBshlb8oB9V6wElwX3xPXtxGxr_A6PEfKoFAMuha-otv7Y2gSouR4htqL2dgWfeTdAtq_5Uzc0Ot3ypGiVAvp_LSRYppVWNkKuhxglLXXhFdbJk-kqjrUf4w2VMwTFgljVqBHcF6KLJJi51MXcKjYL53W_32Zmk2BjCxUlep7qkTJ3Yy6eQOpEMHmVa3xJsY7fKwyXVRxBdxJe4SswKB9KXBUdf56F40-CKMSvwK0XxhUMIqyvBRDQHJzQfb3YMGtww4jInhFQLqWmsyTHolPsL7_wryBafp_y- -LBzxsCHBOi3r0W29x8fgSYSZ4KaPjW1wbS34tbtij1CWz5qOL6jPCrjShXgJIH0YT4RNDNBuIwOudkvK_v-bxtzfvvVQ-lk4DlplfGMrS3GpyVWVrY1FRB4TYlHc2_7e7zPWJssn7OxqPWlpytjm-PAOeoDaOACUeQ_Vr4o81kLQDp-Bnd-8qks4EGKqLgMUC3k8Pia_8YW7NF1M4GEncdF01-O5mKf6GLRgGcPx2LI1cCI45n6Cv6m6_o9cKf0xEce2_wQvarAPXbYb1tdUWVL1pGwxhPNqKQLvFsVIzCqRIcbX5nrBO-SbX_7skIfODw32qQG6FdiMQPNn7t8MoMRO9aSyLCjrTSouXDOWHi3luKQrgRSz0UTUFyy1i2KQ9XQ4ysXi9jN8LEmG0Mhtj3v4DWbna4xgR- -mlstMGQYbIdMx8QZLRNTYbjAucX-1NIo9UHLpNBAMXXQU1mxpi9AOFwZQOKz9qjnMeUBM5Z-c0Pus1MgqKwbKCcQ_viWRcT17aszHRoLDMhQWUqinaqvM8Mu74ueKiiKDTj4tA7PVh-iKsAupoIeI7wMYBUw8vfq3Kx-7nIQonmWLpd5QTaFWFpnizyqeVlxkSJoNUFeBgvo5BT_7W-vTRDvUOp6EQ9ytduhr_Dvt1dJP3y-BsS3xgNawYleNfLL-a9VI-SmpZElHqZMLzE2caumaA3GnTGSlt2wIxQjui72zuDBauuyBiuNbHtWNx0Tg5ED7P1VfnqeLuGzBbw4SxZtCSk2OX-DUCpTiaP2poHKuQNsmoddVTAJRQiWPFt6VlbEKw3kMq7D5xYEEeFfuVNnSFUKLrZBTYK-EAmDHpcPI_hEDDaDEvZo5Qw1-7sq4KkxTEPWBCWLV5qTjCG5pXCCJo3UEb3S3MgABre9U6Sm5LXJjuGKg-hRxzSGv_IDMJQ1b-2sZFTGYfxxiStrl6JJQMWXQrEL8Z6jNaSBMZ-A7hO4r5qBukEBz1pNXJHyMCKotTf5D7pxeXOxyp7HVU-lMfdJyCKJs7wr9O_epJzXXl72-p0SG8x_z5wHzETSygF4veLJC5raeC91CDbJo0osS84N4WXUkluIOF2iD81poP1T9CbZADj0vEeA79aeXN5zzEAAsTcQY7hGQsNO2JnaQc5b2X9aGnZq5EVI1XEEwBgdprqGOhXnTi6wc4gSqv2X28g8N0jdnCH8t6FNGmhS7xavE0_]--></g></svg>