<?xml version="1.0" encoding="us-ascii" standalone="no"?><svg xmlns="http://www.w3.org/2000/svg" xmlns:xlink="http://www.w3.org/1999/xlink" contentStyleType="text/css" height="379px" preserveAspectRatio="none" style="width:1025px;height:379px;background:#FFFFFF;" version="1.1" viewBox="0 0 1025 379" width="1025px" zoomAndPan="magnify"><defs/><g><!--cluster Examples--><g id="cluster_Examples"><path d="M8.5,6.602 L75.5,6.602 A3.75,3.75 0 0 1 78,9.102 L85,31.6699 L655.5,31.6699 A2.5,2.5 0 0 1 658,34.1699 L658,249.102 A2.5,2.5 0 0 1 655.5,251.602 L8.5,251.602 A2.5,2.5 0 0 1 6,249.102 L6,9.102 A2.5,2.5 0 0 1 8.5,6.602 " fill="none" style="stroke:#000000;stroke-width:1.5;"/><line style="stroke:#000000;stroke-width:1.5;" x1="6" x2="85" y1="31.6699" y2="31.6699"/><text fill="#000000" font-family="sans-serif" font-size="14" font-weight="bold" lengthAdjust="spacing" textLength="66" x="10" y="23.5679">Examples</text></g><!--class Lemaire_Example--><g id="elem_Lemaire_Example"><rect codeLine="2" fill="#F1F1F1" height="48" id="Lemaire_Example" rx="2.5" ry="2.5" style="stroke:#181818;stroke-width:0.5;" width="149" x="29.5" y="52.602"/><ellipse cx="44.5" cy="68.602" fill="#ADD1B2" rx="11" ry="11" style="stroke:#181818;stroke-width:1.0;"/><path d="M47.4688,74.2426 Q46.8906,74.5395 46.25,74.6801 Q45.6094,74.8364 44.9063,74.8364 Q42.4063,74.8364 41.0781,73.1957 Q39.7656,71.5395 39.7656,68.4145 Q39.7656,65.2895 41.0781,63.6332 Q42.4063,61.977 44.9063,61.977 Q45.6094,61.977 46.25,62.1332 Q46.9063,62.2895 47.4688,62.5864 L47.4688,65.3051 Q46.8438,64.727 46.25,64.4614 Q45.6563,64.1801 45.0313,64.1801 Q43.6875,64.1801 43,65.2582 Q42.3125,66.3207 42.3125,68.4145 Q42.3125,70.5082 43,71.5864 Q43.6875,72.6489 45.0313,72.6489 Q45.6563,72.6489 46.25,72.3832 Q46.8438,72.102 47.4688,71.5239 L47.4688,74.2426 Z " fill="#000000"/><text fill="#000000" font-family="sans-serif" font-size="14" lengthAdjust="spacing" textLength="117" x="58.5" y="74.034">Lemaire_Example</text><line style="stroke:#181818;stroke-width:0.5;" x1="30.5" x2="177.5" y1="84.602" y2="84.602"/><line style="stroke:#181818;stroke-width:0.5;" x1="30.5" x2="177.5" y1="92.602" y2="92.602"/></g><!--class Martinez_Reina_Example--><g id="elem_Martinez_Reina_Example"><rect codeLine="3" fill="#F1F1F1" height="48" id="Martinez_Reina_Example" rx="2.5" ry="2.5" style="stroke:#181818;stroke-width:0.5;" width="199" x="213.5" y="52.602"/><ellipse cx="228.5" cy="68.602" fill="#ADD1B2" rx="11" ry="11" style="stroke:#181818;stroke-width:1.0;"/><path d="M231.4688,74.2426 Q230.8906,74.5395 230.25,74.6801 Q229.6094,74.8364 228.9063,74.8364 Q226.4063,74.8364 225.0781,73.1957 Q223.7656,71.5395 223.7656,68.4145 Q223.7656,65.2895 225.0781,63.6332 Q226.4063,61.977 228.9063,61.977 Q229.6094,61.977 230.25,62.1332 Q230.9063,62.2895 231.4688,62.5864 L231.4688,65.3051 Q230.8438,64.727 230.25,64.4614 Q229.6563,64.1801 229.0313,64.1801 Q227.6875,64.1801 227,65.2582 Q226.3125,66.3207 226.3125,68.4145 Q226.3125,70.5082 227,71.5864 Q227.6875,72.6489 229.0313,72.6489 Q229.6563,72.6489 230.25,72.3832 Q230.8438,72.102 231.4688,71.5239 L231.4688,74.2426 Z " fill="#000000"/><text fill="#000000" font-family="sans-serif" font-size="14" lengthAdjust="spacing" textLength="167" x="242.5" y="74.034">Martinez_Reina_Example</text><line style="stroke:#181818;stroke-width:0.5;" x1="214.5" x2="411.5" y1="84.602" y2="84.602"/><line style="stroke:#181818;stroke-width:0.5;" x1="214.5" x2="411.5" y1="92.602" y2="92.602"/></g><!--class Martonova_Example--><g id="elem_Martonova_Example"><rect codeLine="4" fill="#F1F1F1" height="48" id="Martonova_Example" rx="2.5" ry="2.5" style="stroke:#181818;stroke-width:0.5;" width="167" x="447.5" y="52.602"/><ellipse cx="462.5" cy="68.602" fill="#ADD1B2" rx="11" ry="11" style="stroke:#181818;stroke-width:1.0;"/><path d="M465.4688,74.2426 Q464.8906,74.5395 464.25,74.6801 Q463.6094,74.8364 462.9063,74.8364 Q460.4063,74.8364 459.0781,73.1957 Q457.7656,71.5395 457.7656,68.4145 Q457.7656,65.2895 459.0781,63.6332 Q460.4063,61.977 462.9063,61.977 Q463.6094,61.977 464.25,62.1332 Q464.9063,62.2895 465.4688,62.5864 L465.4688,65.3051 Q464.8438,64.727 464.25,64.4614 Q463.6563,64.1801 463.0313,64.1801 Q461.6875,64.1801 461,65.2582 Q460.3125,66.3207 460.3125,68.4145 Q460.3125,70.5082 461,71.5864 Q461.6875,72.6489 463.0313,72.6489 Q463.6563,72.6489 464.25,72.3832 Q464.8438,72.102 465.4688,71.5239 L465.4688,74.2426 Z " fill="#000000"/><text fill="#000000" font-family="sans-serif" font-size="14" lengthAdjust="spacing" textLength="135" x="476.5" y="74.034">Martonova_Example</text><line style="stroke:#181818;stroke-width:0.5;" x1="448.5" x2="613.5" y1="84.602" y2="84.602"/><line style="stroke:#181818;stroke-width:0.5;" x1="448.5" x2="613.5" y1="92.602" y2="92.602"/></g><!--class Modiz_Example--><g id="elem_Modiz_Example"><rect codeLine="5" fill="#F1F1F1" height="48" id="Modiz_Example" rx="2.5" ry="2.5" style="stroke:#181818;stroke-width:0.5;" width="136" x="36" y="179.602"/><ellipse cx="51" cy="195.602" fill="#ADD1B2" rx="11" ry="11" style="stroke:#181818;stroke-width:1.0;"/><path d="M53.9688,201.2426 Q53.3906,201.5395 52.75,201.6801 Q52.1094,201.8364 51.4063,201.8364 Q48.9063,201.8364 47.5781,200.1957 Q46.2656,198.5395 46.2656,195.4145 Q46.2656,192.2895 47.5781,190.6332 Q48.9063,188.977 51.4063,188.977 Q52.1094,188.977 52.75,189.1332 Q53.4063,189.2895 53.9688,189.5864 L53.9688,192.3051 Q53.3438,191.727 52.75,191.4614 Q52.1563,191.1801 51.5313,191.1801 Q50.1875,191.1801 49.5,192.2582 Q48.8125,193.3207 48.8125,195.4145 Q48.8125,197.5082 49.5,198.5864 Q50.1875,199.6489 51.5313,199.6489 Q52.1563,199.6489 52.75,199.3832 Q53.3438,199.102 53.9688,198.5239 L53.9688,201.2426 Z " fill="#000000"/><text fill="#000000" font-family="sans-serif" font-size="14" lengthAdjust="spacing" textLength="104" x="65" y="201.034">Modiz_Example</text><line style="stroke:#181818;stroke-width:0.5;" x1="37" x2="171" y1="211.602" y2="211.602"/><line style="stroke:#181818;stroke-width:0.5;" x1="37" x2="171" y1="219.602" y2="219.602"/></g><!--class Pivonka_Example--><g id="elem_Pivonka_Example"><rect codeLine="6" fill="#F1F1F1" height="48" id="Pivonka_Example" rx="2.5" ry="2.5" style="stroke:#181818;stroke-width:0.5;" width="146" x="207" y="179.602"/><ellipse cx="222" cy="195.602" fill="#ADD1B2" rx="11" ry="11" style="stroke:#181818;stroke-width:1.0;"/><path d="M224.9688,201.2426 Q224.3906,201.5395 223.75,201.6801 Q223.1094,201.8364 222.4063,201.8364 Q219.9063,201.8364 218.5781,200.1957 Q217.2656,198.5395 217.2656,195.4145 Q217.2656,192.2895 218.5781,190.6332 Q219.9063,188.977 222.4063,188.977 Q223.1094,188.977 223.75,189.1332 Q224.4063,189.2895 224.9688,189.5864 L224.9688,192.3051 Q224.3438,191.727 223.75,191.4614 Q223.1563,191.1801 222.5313,191.1801 Q221.1875,191.1801 220.5,192.2582 Q219.8125,193.3207 219.8125,195.4145 Q219.8125,197.5082 220.5,198.5864 Q221.1875,199.6489 222.5313,199.6489 Q223.1563,199.6489 223.75,199.3832 Q224.3438,199.102 224.9688,198.5239 L224.9688,201.2426 Z " fill="#000000"/><text fill="#000000" font-family="sans-serif" font-size="14" lengthAdjust="spacing" textLength="114" x="236" y="201.034">Pivonka_Example</text><line style="stroke:#181818;stroke-width:0.5;" x1="208" x2="352" y1="211.602" y2="211.602"/><line style="stroke:#181818;stroke-width:0.5;" x1="208" x2="352" y1="219.602" y2="219.602"/></g><!--class Scheiner_Example--><g id="elem_Scheiner_Example"><rect codeLine="7" fill="#F1F1F1" height="48" id="Scheiner_Example" rx="2.5" ry="2.5" style="stroke:#181818;stroke-width:0.5;" width="154" x="388" y="179.602"/><ellipse cx="403" cy="195.602" fill="#ADD1B2" rx="11" ry="11" style="stroke:#181818;stroke-width:1.0;"/><path d="M405.9688,201.2426 Q405.3906,201.5395 404.75,201.6801 Q404.1094,201.8364 403.4063,201.8364 Q400.9063,201.8364 399.5781,200.1957 Q398.2656,198.5395 398.2656,195.4145 Q398.2656,192.2895 399.5781,190.6332 Q400.9063,188.977 403.4063,188.977 Q404.1094,188.977 404.75,189.1332 Q405.4063,189.2895 405.9688,189.5864 L405.9688,192.3051 Q405.3438,191.727 404.75,191.4614 Q404.1563,191.1801 403.5313,191.1801 Q402.1875,191.1801 401.5,192.2582 Q400.8125,193.3207 400.8125,195.4145 Q400.8125,197.5082 401.5,198.5864 Q402.1875,199.6489 403.5313,199.6489 Q404.1563,199.6489 404.75,199.3832 Q405.3438,199.102 405.9688,198.5239 L405.9688,201.2426 Z " fill="#000000"/><text fill="#000000" font-family="sans-serif" font-size="14" lengthAdjust="spacing" textLength="122" x="417" y="201.034">Scheiner_Example</text><line style="stroke:#181818;stroke-width:0.5;" x1="389" x2="541" y1="211.602" y2="211.602"/><line style="stroke:#181818;stroke-width:0.5;" x1="389" x2="541" y1="219.602" y2="219.602"/></g><!--class Utils--><g id="elem_Utils"><rect fill="#F1F1F1" height="48" id="Utils" rx="2.5" ry="2.5" style="stroke:#181818;stroke-width:0.5;" width="62" x="682" y="179.602"/><ellipse cx="697" cy="195.602" fill="#ADD1B2" rx="11" ry="11" style="stroke:#181818;stroke-width:1.0;"/><path d="M699.9688,201.2426 Q699.3906,201.5395 698.75,201.6801 Q698.1094,201.8364 697.4063,201.8364 Q694.9063,201.8364 693.5781,200.1957 Q692.2656,198.5395 692.2656,195.4145 Q692.2656,192.2895 693.5781,190.6332 Q694.9063,188.977 697.4063,188.977 Q698.1094,188.977 698.75,189.1332 Q699.4063,189.2895 699.9688,189.5864 L699.9688,192.3051 Q699.3438,191.727 698.75,191.4614 Q698.1563,191.1801 697.5313,191.1801 Q696.1875,191.1801 695.5,192.2582 Q694.8125,193.3207 694.8125,195.4145 Q694.8125,197.5082 695.5,198.5864 Q696.1875,199.6489 697.5313,199.6489 Q698.1563,199.6489 698.75,199.3832 Q699.3438,199.102 699.9688,198.5239 L699.9688,201.2426 Z " fill="#000000"/><text fill="#000000" font-family="sans-serif" font-size="14" lengthAdjust="spacing" textLength="30" x="711" y="201.034">Utils</text><line style="stroke:#181818;stroke-width:0.5;" x1="683" x2="743" y1="211.602" y2="211.602"/><line style="stroke:#181818;stroke-width:0.5;" x1="683" x2="743" y1="219.602" y2="219.602"/></g><!--class Load_Cases--><g id="elem_Load_Cases"><rect fill="#F1F1F1" height="48" id="Load_Cases" rx="2.5" ry="2.5" style="stroke:#181818;stroke-width:0.5;" width="109" x="779.5" y="179.602"/><ellipse cx="794.5" cy="195.602" fill="#ADD1B2" rx="11" ry="11" style="stroke:#181818;stroke-width:1.0;"/><path d="M797.4688,201.2426 Q796.8906,201.5395 796.25,201.6801 Q795.6094,201.8364 794.9063,201.8364 Q792.4063,201.8364 791.0781,200.1957 Q789.7656,198.5395 789.7656,195.4145 Q789.7656,192.2895 791.0781,190.6332 Q792.4063,188.977 794.9063,188.977 Q795.6094,188.977 796.25,189.1332 Q796.9063,189.2895 797.4688,189.5864 L797.4688,192.3051 Q796.8438,191.727 796.25,191.4614 Q795.6563,191.1801 795.0313,191.1801 Q793.6875,191.1801 793,192.2582 Q792.3125,193.3207 792.3125,195.4145 Q792.3125,197.5082 793,198.5864 Q793.6875,199.6489 795.0313,199.6489 Q795.6563,199.6489 796.25,199.3832 Q796.8438,199.102 797.4688,198.5239 L797.4688,201.2426 Z " fill="#000000"/><text fill="#000000" font-family="sans-serif" font-size="14" lengthAdjust="spacing" textLength="77" x="808.5" y="201.034">Load_Cases</text><line style="stroke:#181818;stroke-width:0.5;" x1="780.5" x2="887.5" y1="211.602" y2="211.602"/><line style="stroke:#181818;stroke-width:0.5;" x1="780.5" x2="887.5" y1="219.602" y2="219.602"/></g><!--class Models--><g id="elem_Models"><rect fill="#F1F1F1" height="48" id="Models" rx="2.5" ry="2.5" style="stroke:#181818;stroke-width:0.5;" width="81" x="923.5" y="179.602"/><ellipse cx="938.5" cy="195.602" fill="#ADD1B2" rx="11" ry="11" style="stroke:#181818;stroke-width:1.0;"/><path d="M941.4688,201.2426 Q940.8906,201.5395 940.25,201.6801 Q939.6094,201.8364 938.9063,201.8364 Q936.4063,201.8364 935.0781,200.1957 Q933.7656,198.5395 933.7656,195.4145 Q933.7656,192.2895 935.0781,190.6332 Q936.4063,188.977 938.9063,188.977 Q939.6094,188.977 940.25,189.1332 Q940.9063,189.2895 941.4688,189.5864 L941.4688,192.3051 Q940.8438,191.727 940.25,191.4614 Q939.6563,191.1801 939.0313,191.1801 Q937.6875,191.1801 937,192.2582 Q936.3125,193.3207 936.3125,195.4145 Q936.3125,197.5082 937,198.5864 Q937.6875,199.6489 939.0313,199.6489 Q939.6563,199.6489 940.25,199.3832 Q940.8438,199.102 941.4688,198.5239 L941.4688,201.2426 Z " fill="#000000"/><text fill="#000000" font-family="sans-serif" font-size="14" lengthAdjust="spacing" textLength="49" x="952.5" y="201.034">Models</text><line style="stroke:#181818;stroke-width:0.5;" x1="924.5" x2="1003.5" y1="211.602" y2="211.602"/><line style="stroke:#181818;stroke-width:0.5;" x1="924.5" x2="1003.5" y1="219.602" y2="219.602"/></g><!--class Parameters--><g id="elem_Parameters"><rect fill="#F1F1F1" height="48" id="Parameters" rx="2.5" ry="2.5" style="stroke:#181818;stroke-width:0.5;" width="109" x="909.5" y="324.602"/><ellipse cx="924.5" cy="340.602" fill="#ADD1B2" rx="11" ry="11" style="stroke:#181818;stroke-width:1.0;"/><path d="M927.4688,346.2426 Q926.8906,346.5395 926.25,346.6801 Q925.6094,346.8364 924.9063,346.8364 Q922.4063,346.8364 921.0781,345.1957 Q919.7656,343.5395 919.7656,340.4145 Q919.7656,337.2895 921.0781,335.6332 Q922.4063,333.977 924.9063,333.977 Q925.6094,333.977 926.25,334.1332 Q926.9063,334.2895 927.4688,334.5864 L927.4688,337.3051 Q926.8438,336.727 926.25,336.4614 Q925.6563,336.1801 925.0313,336.1801 Q923.6875,336.1801 923,337.2582 Q922.3125,338.3207 922.3125,340.4145 Q922.3125,342.5082 923,343.5864 Q923.6875,344.6489 925.0313,344.6489 Q925.6563,344.6489 926.25,344.3832 Q926.8438,344.102 927.4688,343.5239 L927.4688,346.2426 Z " fill="#000000"/><text fill="#000000" font-family="sans-serif" font-size="14" lengthAdjust="spacing" textLength="77" x="938.5" y="346.034">Parameters</text><line style="stroke:#181818;stroke-width:0.5;" x1="910.5" x2="1017.5" y1="356.602" y2="356.602"/><line style="stroke:#181818;stroke-width:0.5;" x1="910.5" x2="1017.5" y1="364.602" y2="364.602"/></g><!--link Examples to Utils--><g id="link_Examples_Utils"><path codeLine="10" d="M658.033,93.5387 C658.0935,93.6589 658.1544,93.7797 658.2155,93.901 C658.4599,94.3861 658.7086,94.8796 658.9614,95.3812 C659.9724,97.3875 661.0485,99.523 662.1787,101.7658 C664.4391,106.2513 666.9159,111.166 669.5213,116.3357 C679.9425,137.0145 689.7198,156.4139 698.6298,174.0939 " fill="none" id="Examples-to-Utils" style="stroke:#181818;stroke-width:1.0;"/><polygon fill="#181818" points="701.33,179.452,700.8517,169.6147,699.0798,174.9869,693.7076,173.2151,701.33,179.452" style="stroke:#181818;stroke-width:1.0;"/><text fill="#000000" font-family="sans-serif" font-size="13" lengthAdjust="spacing" textLength="27" x="687" y="145.499">uses</text></g><!--link Examples to Load_Cases--><g id="link_Examples_Load_Cases"><path codeLine="11" d="M658.0837,83.0946 C658.9851,83.7069 659.9541,84.3652 660.9867,85.0666 C663.0518,86.4694 665.3711,88.0448 667.9125,89.7712 C678.0781,96.6767 691.7975,105.9964 707.0175,116.3357 C737.4575,137.0145 768.9372,158.3999 794.9572,176.0799 " fill="none" id="Examples-to-Load_Cases" style="stroke:#181818;stroke-width:1.0;"/><polygon fill="#181818" points="799.92,179.452,794.7239,171.0853,795.7844,176.6419,790.2278,177.7024,799.92,179.452" style="stroke:#181818;stroke-width:1.0;"/><text fill="#000000" font-family="sans-serif" font-size="13" lengthAdjust="spacing" textLength="27" x="755" y="145.499">uses</text></g><!--link Examples to Models--><g id="link_Examples_Models"><path codeLine="12" d="M658.0787,80.527 C658.2847,80.6018 658.4943,80.6779 658.7074,80.7554 C660.4125,81.3749 662.3436,82.0775 664.4783,82.8556 C673.0172,85.9679 684.8156,90.2889 698.4538,95.3407 C725.73,105.4445 760.365,118.472 791,130.602 C836.52,148.622 882.787,167.9975 917.747,182.8375 " fill="none" id="Examples-to-Models" style="stroke:#181818;stroke-width:1.0;"/><polygon fill="#181818" points="923.27,185.182,916.5484,177.9833,918.6675,183.2283,913.4225,185.3473,923.27,185.182" style="stroke:#181818;stroke-width:1.0;"/><text fill="#000000" font-family="sans-serif" font-size="13" lengthAdjust="spacing" textLength="27" x="835" y="145.499">uses</text></g><!--link Models to Parameters--><g id="link_Models_Parameters"><path codeLine="13" d="M964,227.892 C964,254.492 964,291.732 964,318.322 " fill="none" id="Models-to-Parameters" style="stroke:#181818;stroke-width:1.0;"/><polygon fill="#181818" points="964,324.322,968,315.322,964,319.322,960,315.322,964,324.322" style="stroke:#181818;stroke-width:1.0;"/><text fill="#000000" font-family="sans-serif" font-size="13" lengthAdjust="spacing" textLength="27" x="965" y="290.499">uses</text></g><!--SRC=[xHjhRzouyRj_XRxLmJa1-cuNHOlQwUMAozL6xef-9BWITvUD9AeYjV5UUl-zGrAYI8hKIYkvJjeOY9tLF3b33kUXhN3w7kz9yfT7N5GvuH-l4lX9SynvyfOKcDO4jJ0Bado7Qq5ByYDwHsY90nWIWPNiY8FKBAC_XW0FzCZAzq6QxzC3Y2ArWLtzTDKfdRny-SVaxuBcFDaa3IVSXRnbE4Dt69u7mQ0DwIdRJnBmW6jS445g0op9XmgiTQLrKX8_9ahBhv8gPm9jMKdGaULDGT2kngcWhBmMj22Rv4_9JH82Sm3T98AA792ug6cvVx59ZencvnZpQmuFrFzY52d9SvIoCYMbgB57T9Eyffo0NPHnRf9tP4Tg0hZjvnJdTAkfa3XL92040_j2MWonQXRt0A-77xv1Sc57BN77QiK-qrmuuW8Bmg_bafeSrwWcl08vz4XAmZcojGMwcuIMWkpX0SaqMofEGwGft0u4v-9mEi_H8B8yivRIhLLkMRE5glRWwVscZntUWl-1hjtpjz9u2gx1obO8qP8AXAuvoNUs5RKbUwzNh8A5ARsKXnJ1JVAuINBA1UouJRBB6HOlz0EB1omfbQG4J4vmTjAMxmIMJL6TNfKPhcjyigZ0yKU2pieNlCAbnmMuyfJ2PsFWLuWUgrVottr6tX7Uv645VtZpzTRUDFUtJIld_Wwt2tIMglx6MTMaWet0DQjg4IjRgpjyAQjtV_xRjszTNaQjsyhmkh-ToPSyGbmhSGwxwPya5Uw2B-U0btAucyKX51LHUi3bdhHikd0qPOS1jhNVlJqgJpyL5BGD2OsU9LnL-GaLH2f5GN54TZjOAp_ZmudxfEEU0MkrzfQxyUKy6kpIN2cgdm8PWH-K4YSgtIIvl75J25-RX6sbRuU1wiiPNdo6lGlp_dREqP74Jc8mX_Z-uKsGs5xE_r4O2d00yoxLuU7DGWvgt_qFXTDXFFBAa1N2qh8iHcgRi5sYFlD8IbLZ2a4NIfdz2MK4KavnCiSdV0CSCKzLabgnUc2aS5KnxnYc3CeXYcLoNc0eGHxFA3HLOYnNx2MVM5FkkRHjapTy9R7nXM9-wEko9nTs93Ma-AYGTIjMTPY0YDdANLrmKsLAwXxEmXxzgo4DMMc9yemaF-kg4qjaUuQXGlklYkrDt9gMSdr4S_nXJhpJ5_EvYspslGo7cl6cmDkv5wmEFhBm7MCnPfdgWEi2f-mzs4NGb2FrWAKiEvMua0yCPqyTA8LjIKznvGJ3jsuIhPfGPdMpL_aDX6vEXXnwiNrdQCoe3z-YXzTk-3T6QylfOUBV-x9h5NJEYrRRfXSncQ8cAQa4o501d3mEMZr1UaELqpqkixahMoc77113B605scAEXyhiSr1KNu7IfnlPYhcOEvABrdkMPCj5zQqWCBd0fIdk1luqhHVL43ndtI5VjPri0xNBCUpR9OJwL98Kyh4A5fxMH9s3xjm_dPgMfVlTyIae7H3MEUt0E2bx5TfDe9a7WQWN6LdSUEuLxa2swWGKlT1Y5QafooQL0SuQOds4KMCEzUWA232MpFJGxDicexkkWGpviubXNZPtEN-SuKgqpMvmwChwVY1qVp2HuNAkCeUiwLOLOOZjUZjaXAjQ0gzYZAYOkXNJPbmN2h9IfOuTR9vE24Tu1vc5vP75wz7crzkplpRNOXjSnMpcJcQa9cHkLlHLCf8LQG9hqdMJwBcC7DnqSwNXIAUVEAtLOQAGO0gwSmSZbPcaNGD91H95CDFIkPrqqQufzR4sf2QGvMqJqb8CzEm2S66Ikn1yF9_DoT7JzxgTFctw8UByDIDMvZeYjWEYTg3IcS8-691Ed-1AqJrPUVAwC2BQooQ5X1vM1i6SomJ_MexEDb1IiJoUmWOwkVqqBjBJlI07NvGR3bNiXi5VcispMGLBshlb8oB9V6wElwX3xPXtxGxr_A6PEfKoFAMuha-otv7Y2gSouR4htqL2dgWfeTdAtq_5Uzc0Ot3ypGiVAvp_LSRYppVWNkKuhxglLXXhFdbJk-kqjrUf4w2VMwTFgljVqBHcF6KLJJi51MXcKjYL53W_32Zmk2BjCxUlep7qkTJ3Yy6eQOpEMHmVa3xJsY7fKwyXVRxBdxJe4SswKB9KXBUdf56F40-CKMSvwK0XxhUMIqyvBRDQHJzQfb3YMGtww4jInhFQLqWmsyTHolPsL7_wryBafp_y- -LBzxsCHBOi3r0W29x8fgSYSZ4KaPjW1wbS34tbtij1CWz5qOL6jPCrjShXgJIH0YT4RNDNBuIwOudkvK_v-bxtzfvvVQ-lk4DlplfGMrS3GpyVWVrY1FRB4TYlHc2_7e7zPWJssn7OxqPWlpytjm-PAOeoDaOACUeQ_Vr4o81kLQDp-Bnd-8qks4EGKqLgMUC3k8Pia_8YW7NF1M4GEncdF01-O5mKf6GLRgGcPx2LI1cCI45n6Cv6m6_o9cKf0xEce2_wQvarAPXbYb1tdUWVL1pGwxhPNqKQLvFsVIzCqRIcbX5nrBO-SbX_7skIfODw32qQG6FdiMQPNn7t8MoMRO9aSyLCjrTSouXDOWHi3luKQrgRSz0UTUFyy1i2KQ9XQ4ysXi9jN8LEmG0Mhtj3v4DWbna4xgR- -mlstMGQYbIdMx8QZLRNTYbjAucX-1NIo9UHLpNBAMXXQU1mxpi9AOFwZQOKz9qjnMeUBM5Z-c0Pus1MgqKwbKCcQ_viWRcT17aszHRoLDMhQWUqinaqvM8Mu74ueKiiKDTj4tA7PVh-iKsAupoIeI7wMYBUw8vfq3Kx-7nIQonmWLpd5QTaFWFpnizyqeVlxkSJoNUFeBgvo5BT_7W-vTRDvUOp6EQ9ytduhr_Dvt1dJP3y-BsS3xgNawYleNfLL-a9VI-SmpZElHqZMLzE2caumaA3GnTGSlt2wIxQjui72zuDBauuyBiuNbHtWNx0Tg5ED7P1VfnqeLuGzBbw4SxZtCSk2OX-DUCpTiaP2poHKuQNsmoddVTAJRQiWPFt6VlbEKw3kMq7D5xYEEeFfuVNnSFUKLrZBTYK-EAmDHpcPI_hEDDaDEvZo5Qw1-7sq4KkxTEPWBCWLV5qTjCG5pXCCJo3UEb3S3MgABre9U6Sm5LXJjuGKg-hRxzSGv_IDMJQ1b-2sZFTGYfxxiStrl6JJQMWXQrEL8Z6jNaSBMZ-A7hO4r5qBukEBz1pNXJHyMCKotTf5D7pxeXOxyp7HVU-lMfdJyCKJs7wr9O_epJzXXl72-p0SG8x_z5wHzETSygF4veLJC5raeC91CDbJo0osS84N4WXUkluIOF2iD81poP1T9CbZADj0vEeA79aeXN5zzEAAsTcQY7hGQsNO2JnaQc5b2X9aGnZq5EVI1XEEwBgdprqGOhXnTi6wc4gSqv2X28g8N0jdnCH8t6FNGmhS7xavE0_]--></g></svg>